#!OML:ASF H:\BabyWalks\Project 1\Capture day 1\Session 1\baby.ASF
:FULLY-SPECIFIED
:DEGREES
285
root -18.1946 17.6176 -6.01619 -163.087 76.0474 -169.45
lowerback 18.3439 -1.81164 -4.49863
upperback 3.13105 -2.9805 0.782018
thorax -6.60251 -1.25652 4.08371
lowerneck 1.13191 2.61363 5.37728
upperneck -21.681 4.93527 0.409432
head -6.69059 2.2724 -1.10506
rclavicle -6.36111e-015 3.10104e-014
rhumerus -50.921 4.75926 -79.862
rradius 43.9657
rwrist 1.18901
rhand -2.49546 -14.9241
rfingers 7.12502
rthumb 23.1981 -43.5471
lclavicle -6.36111e-015 3.10104e-014
lhumerus -45.3938 -17.4397 81.2518
lradius 65.6069
lwrist 10.4038
lhand 1.48493 12.1932
lfingers 7.12502
lthumb 27.0119 40.2817
rfemur -29.4141 15.9035 17.0372
rtibia 24.0189
rfoot -10.2575 5.63897
rtoes -11.553
lfemur 1.54385 -3.80071 -17.5401
ltibia 20.9977
lfoot -26.9593 -5.45166
ltoes 3.59471
286
root -18.0696 17.5878 -6.03856 -163.676 76.0351 -169.896
lowerback 18.3324 -1.86126 -4.26801
upperback 3.14119 -2.99111 0.8943
thorax -6.59057 -1.26599 4.0751
lowerneck 1.34936 2.65034 5.47945
upperneck -21.9392 4.93016 -0.0546485
head -6.79486 2.29099 -1.27976
rclavicle -9.93923e-016 7.95139e-016
rhumerus -50.9614 4.36636 -79.5403
rradius 43.7704
rwrist 1.34473
rhand -2.67722 -14.9922
rfingers 7.12502
rthumb 23.0237 -43.637
lclavicle -9.93923e-016 7.95139e-016
lhumerus -45.6237 -17.0931 81.41
lradius 65.3348
lwrist 10.3173
lhand 1.88002 12.3422
lfingers 7.12502
lthumb 27.3898 40.3716
rfemur -29.4193 16.2691 17.0296
rtibia 25.0535
rfoot -9.01072 5.81343
rtoes -9.45682
lfemur 1.8709 -3.55734 -17.5604
ltibia 21.585
lfoot -27.2161 -5.96704
ltoes 3.19856
287
root -17.9477 17.5586 -6.06023 -163.839 76.0228 -169.91
lowerback 18.3452 -1.90203 -3.94606
upperback 3.16753 -2.97001 1.02857
thorax -6.58099 -1.26133 4.03167
lowerneck 1.56669 2.68319 5.58622
upperneck -22.2525 4.92643 -0.51228
head -6.91743 2.31102 -1.45543
rclavicle -2.78299e-015 3.97569e-016
rhumerus -50.9496 3.93187 -79.2214
rradius 43.5445
rwrist 1.51048
rhand -2.96578 -15.0573
rfingers 7.12502
rthumb 22.7468 -43.7364
lclavicle -2.78299e-015 3.97569e-016
lhumerus -45.8099 -16.6805 81.5411
lradius 65.0282
lwrist 10.185
lhand 2.09516 12.4399
lfingers 7.12502
lthumb 27.5956 40.4365
rfemur -29.4543 16.6391 17.151
rtibia 26.1678
rfoot -8.1055 5.84908
rtoes -7.50751
lfemur 2.01953 -3.22899 -17.4458
ltibia 22.4987
lfoot -27.5154 -6.53922
ltoes 2.6262
288
root -17.8288 17.5298 -6.08179 -163.547 76.0149 -169.465
lowerback 18.3831 -1.93812 -3.51919
upperback 3.20451 -2.92037 1.18073
thorax -6.58057 -1.24403 3.94213
lowerneck 1.7649 2.71548 5.69579
upperneck -22.5889 4.92731 -0.950079
head -7.04498 2.33351 -1.6267
rclavicle -2.72335e-014 5.96354e-015
rhumerus -50.8861 3.46357 -78.9136
rradius 43.2754
rwrist 1.70171
rhand -3.34048 -15.1232
rfingers 7.12502
rthumb 22.3872 -43.846
lclavicle -2.72335e-014 5.96354e-015
lhumerus -45.97 -16.2105 81.6435
lradius 64.6897
lwrist 10.0093
lhand 2.10003 12.5156
lfingers 7.12502
lthumb 27.6003 40.5115
rfemur -29.5034 17.0213 17.4055
rtibia 27.3202
rfoot -7.64146 5.71965
rtoes -6.05599
lfemur 1.98271 -2.79744 -17.1884
ltibia 23.7462
lfoot -27.8378 -7.17986
ltoes 1.86374
289
root -17.7125 17.5011 -6.10361 -162.897 76.0077 -168.664
lowerback 18.439 -1.97186 -3.01866
upperback 3.25465 -2.85044 1.35067
thorax -6.57976 -1.21762 3.82542
lowerneck 1.92878 2.75087 5.80818
upperneck -22.9278 4.9345 -1.37232
head -7.16795 2.35971 -1.79425
rclavicle 1.07344e-014 -7.15625e-015
rhumerus -50.7669 2.98348 -78.6141
rradius 42.9711
rwrist 1.92164
rhand -3.78137 -15.1982
rfingers 7.12502
rthumb 21.9639 -43.9713
lclavicle 1.07344e-014 -7.15625e-015
lhumerus -46.104 -15.68 81.7241
lradius 64.314
lwrist 9.79489
lhand 1.88703 12.5514
lfingers 7.12502
lthumb 27.3965 40.5798
rfemur -29.5457 17.3997 17.7689
rtibia 28.4742
rfoot -7.64087 5.46966
rtoes -5.18405
lfemur 1.77629 -2.27758 -16.8082
ltibia 25.2982
lfoot -28.1392 -7.93048
ltoes 1.0682
290
root -17.5985 17.4727 -6.12606 -162.043 76.0025 -167.668
lowerback 18.503 -2.00206 -2.476
upperback 3.31286 -2.76597 1.52202
thorax -6.57704 -1.18438 3.68274
lowerneck 2.05641 2.7864 5.92962
upperneck -23.2467 4.94398 -1.77201
head -7.27873 2.38629 -1.9559
rclavicle -5.96354e-015 1.70955e-014
rhumerus -50.6035 2.49138 -78.3326
rradius 42.6399
rwrist 2.16848
rhand -4.26939 -15.3008
rfingers 7.12502
rthumb 21.4953 -44.1282
lclavicle -5.96354e-015 1.70955e-014
lhumerus -46.2224 -15.1194 81.7834
lradius 63.9034
lwrist 9.55114
lhand 1.4512 12.5661
lfingers 7.12502
lthumb 26.9796 40.6597
rfemur -29.5709 17.7885 18.1847
rtibia 29.5987
rfoot -8.05766 5.17467
rtoes -4.92818
lfemur 1.41517 -1.66741 -16.3489
ltibia 27.1016
lfoot -28.3725 -8.7932
ltoes 0.186627
291
root -17.4865 17.4455 -6.14936 -161.183 76.0035 -166.683
lowerback 18.5699 -2.02709 -1.94111
upperback 3.37632 -2.67553 1.68437
thorax -6.56961 -1.14766 3.53309
lowerneck 2.14158 2.8204 6.06016
upperneck -23.5251 4.95115 -2.15063
head -7.36945 2.4108 -2.11094
rclavicle -6.89783e-014 5.56597e-015
rhumerus -50.4009 2.00812 -78.0736
rradius 42.294
rwrist 2.43549
rhand -4.79592 -15.4283
rfingers 7.12502
rthumb 20.9895 -44.3125
lclavicle -6.89783e-014 5.56597e-015
lhumerus -46.327 -14.5453 81.833
lradius 63.4552
lwrist 9.29411
lhand 0.805952 12.5647
lfingers 7.12502
lthumb 26.3621 40.7522
rfemur -29.5697 18.1621 18.5947
rtibia 30.6724
rfoot -8.75077 4.89275
rtoes -5.19058
lfemur 0.928844 -0.986551 -15.8649
ltibia 29.0839
lfoot -28.475 -9.78541
ltoes -0.731179
